<svg width="29" height="19" viewBox="0 0 29 19" fill="none" xmlns="http://www.w3.org/2000/svg">
<path fill-rule="evenodd" clip-rule="evenodd" d="M28.9375 9.50002C28.9375 9.22652 28.8289 8.96422 28.6355 8.77082C28.4421 8.57742 28.1798 8.46877 27.9062 8.46877H3.58319L10.0739 1.98015C10.1698 1.88426 10.2458 1.77044 10.2977 1.64516C10.3496 1.51989 10.3763 1.38562 10.3763 1.25002C10.3763 1.11442 10.3496 0.980155 10.2977 0.85488C10.2458 0.729605 10.1698 0.615777 10.0739 0.519896C9.97799 0.424014 9.86417 0.347957 9.73889 0.296067C9.61362 0.244176 9.47935 0.217468 9.34375 0.217468C9.20815 0.217468 9.07388 0.244176 8.94861 0.296067C8.82333 0.347957 8.70951 0.424014 8.61363 0.519896L0.363626 8.7699C0.267589 8.86569 0.191395 8.97949 0.139406 9.10478C0.087418 9.23006 0.0606575 9.36438 0.0606575 9.50002C0.0606575 9.63567 0.087418 9.76998 0.139406 9.89526C0.191395 10.0206 0.267589 10.1344 0.363626 10.2301L8.61363 18.4801C8.70951 18.576 8.82333 18.6521 8.94861 18.704C9.07388 18.7559 9.20815 18.7826 9.34375 18.7826C9.47935 18.7826 9.61362 18.7559 9.73889 18.704C9.86417 18.6521 9.97799 18.576 10.0739 18.4801C10.1698 18.3843 10.2458 18.2704 10.2977 18.1452C10.3496 18.0199 10.3763 17.8856 10.3763 17.75C10.3763 17.6144 10.3496 17.4802 10.2977 17.3549C10.2458 17.2296 10.1698 17.1158 10.0739 17.0199L3.58319 10.5313H27.9062C28.1798 10.5313 28.4421 10.4226 28.6355 10.2292C28.8289 10.0358 28.9375 9.77353 28.9375 9.50002Z" fill="white"/>
</svg>
