<svg  viewBox="0 0 354 242" fill="none" xmlns="http://www.w3.org/2000/svg">
<path d="M354 177.751C354 231.619 288.347 167.661 197.661 167.661C106.974 167.661 48.8029 246.567 24.6105 191.44C-29.211 68.7985 14.0484 -1.04447e-05 70.0389 0C159.711 1.67277e-05 354 89.1835 354 177.751Z" fill="#80DEEA"/>
<path d="M344 167.343C344 221.087 276.692 157.276 183.72 157.276C90.7477 157.276 -21 226 4 179C67.5587 59.5096 -6.97237 3 86 3C187.387 3.00001 344 78.9785 344 167.343Z" fill="#0277BD"/>
<path d="M336 141.431C336 186 120.399 126.959 83.27 132.305C65.008 132.305 133 131.346 123 131.537C50.6731 132.253 -11.134 135.633 3.83635 151.516C255 418 -13.3142 5.84013 73.6663 5.84013C173.693 5.84013 336 -14.1965 336 141.431Z" fill="#29B6F6"/>
<path d="M98.544 54.24L92.256 39.432C92.048 38.936 91.784 38.536 91.464 38.232C91.16 37.912 90.712 37.696 90.12 37.584L89.64 37.488V36.888L93.216 36.96L96.792 36.888V37.488L96.072 37.56C95.576 37.608 95.176 37.736 94.872 37.944C94.584 38.136 94.44 38.432 94.44 38.832C94.44 39.12 94.528 39.48 94.704 39.912L99.552 51.408L104.208 39.888C104.304 39.664 104.368 39.464 104.4 39.288C104.448 39.096 104.472 38.928 104.472 38.784C104.472 38.4 104.344 38.12 104.088 37.944C103.832 37.752 103.48 37.632 103.032 37.584L102.192 37.488V36.888L105.552 36.96L107.952 36.888V37.464L107.4 37.584C106.792 37.712 106.32 37.96 105.984 38.328C105.648 38.696 105.344 39.224 105.072 39.912L99.312 54.24H98.544ZM110.27 54.264C109.502 54.264 108.862 54.072 108.35 53.688C107.854 53.288 107.606 52.736 107.606 52.032C107.606 51.328 107.918 50.704 108.542 50.16C109.166 49.6 109.894 49.096 110.726 48.648C111.35 48.296 111.974 47.992 112.598 47.736C113.222 47.48 113.758 47.264 114.206 47.088V46.32C114.206 45.44 114.038 44.784 113.702 44.352C113.382 43.92 112.766 43.704 111.854 43.704C111.422 43.704 110.998 43.76 110.582 43.872C110.166 43.984 109.958 44.192 109.958 44.496C109.958 44.56 109.966 44.632 109.982 44.712C110.014 44.792 110.038 44.872 110.054 44.952C110.134 45.16 110.174 45.376 110.174 45.6C110.174 45.904 110.062 46.144 109.838 46.32C109.63 46.48 109.374 46.56 109.07 46.56C108.782 46.56 108.542 46.456 108.35 46.248C108.158 46.024 108.062 45.76 108.062 45.456C108.062 44.88 108.278 44.424 108.71 44.088C109.158 43.736 109.702 43.488 110.342 43.344C110.982 43.184 111.598 43.104 112.19 43.104C113.47 43.104 114.406 43.4 114.998 43.992C115.59 44.584 115.886 45.552 115.886 46.896V51.216C115.886 51.92 115.934 52.464 116.03 52.848C116.142 53.232 116.382 53.424 116.75 53.424C116.99 53.424 117.198 53.336 117.374 53.16C117.55 52.984 117.67 52.792 117.734 52.584L118.166 52.752C118.038 53.216 117.806 53.584 117.47 53.856C117.15 54.128 116.702 54.264 116.126 54.264C115.422 54.264 114.934 54.064 114.662 53.664C114.406 53.248 114.262 52.704 114.23 52.032C113.782 52.752 113.214 53.304 112.526 53.688C111.838 54.072 111.086 54.264 110.27 54.264ZM109.478 51.912C109.478 52.36 109.606 52.72 109.862 52.992C110.134 53.248 110.526 53.376 111.038 53.376C111.502 53.376 111.942 53.264 112.358 53.04C112.79 52.816 113.166 52.536 113.486 52.2C113.806 51.848 114.046 51.472 114.206 51.072V47.568C113.678 47.792 113.134 48.056 112.574 48.36C112.03 48.648 111.518 48.976 111.038 49.344C110.574 49.712 110.198 50.112 109.91 50.544C109.622 50.96 109.478 51.416 109.478 51.912ZM124.556 54.264C123.484 54.264 122.548 54.032 121.748 53.568C120.948 53.104 120.332 52.472 119.9 51.672C119.468 50.872 119.252 49.96 119.252 48.936C119.252 47.816 119.5 46.816 119.996 45.936C120.492 45.056 121.164 44.368 122.012 43.872C122.86 43.36 123.82 43.104 124.892 43.104C125.404 43.104 125.932 43.184 126.476 43.344C127.02 43.504 127.476 43.744 127.844 44.064C128.228 44.384 128.42 44.776 128.42 45.24C128.42 45.592 128.308 45.888 128.084 46.128C127.86 46.352 127.588 46.464 127.268 46.464C126.852 46.464 126.54 46.344 126.332 46.104C126.124 45.864 126.02 45.624 126.02 45.384C126.02 45.256 126.028 45.144 126.044 45.048C126.076 44.952 126.1 44.864 126.116 44.784C126.148 44.704 126.172 44.624 126.188 44.544C126.204 44.448 126.212 44.352 126.212 44.256C126.212 44.032 126.044 43.888 125.708 43.824C125.388 43.744 125.108 43.704 124.868 43.704C123.748 43.704 122.852 44.176 122.18 45.12C121.508 46.048 121.172 47.28 121.172 48.816C121.172 49.664 121.316 50.448 121.604 51.168C121.892 51.888 122.308 52.464 122.852 52.896C123.412 53.328 124.1 53.544 124.916 53.544C125.588 53.544 126.228 53.36 126.836 52.992C127.444 52.608 127.884 51.96 128.156 51.048L128.732 51.24C128.428 52.344 127.884 53.128 127.1 53.592C126.316 54.04 125.468 54.264 124.556 54.264ZM130.117 54.072V53.52L130.501 53.472C130.965 53.408 131.317 53.336 131.557 53.256C131.813 53.16 131.989 52.96 132.085 52.656C132.181 52.336 132.229 51.816 132.229 51.096V46.032C132.229 45.2 132.053 44.672 131.701 44.448C131.365 44.208 130.893 44.088 130.285 44.088H130.117V43.536C130.773 43.536 131.405 43.52 132.013 43.488C132.621 43.44 133.253 43.36 133.909 43.248V51.096C133.909 51.816 133.957 52.336 134.053 52.656C134.149 52.96 134.317 53.16 134.557 53.256C134.813 53.336 135.173 53.408 135.637 53.472L136.021 53.52V54.072L133.069 54L130.117 54.072ZM132.781 40.44C132.365 40.44 132.037 40.296 131.797 40.008C131.557 39.72 131.437 39.376 131.437 38.976C131.437 38.56 131.557 38.216 131.797 37.944C132.037 37.656 132.365 37.512 132.781 37.512C133.245 37.512 133.581 37.656 133.789 37.944C134.013 38.216 134.125 38.56 134.125 38.976C134.125 39.376 134.013 39.72 133.789 40.008C133.581 40.296 133.245 40.44 132.781 40.44ZM136.938 54.072V53.52L137.322 53.472C137.786 53.408 138.138 53.336 138.378 53.256C138.634 53.16 138.81 52.96 138.906 52.656C139.002 52.336 139.05 51.816 139.05 51.096V46.032C139.05 45.2 138.874 44.672 138.522 44.448C138.186 44.208 137.714 44.088 137.106 44.088H136.938V43.536C137.594 43.536 138.226 43.52 138.834 43.488C139.442 43.44 140.074 43.36 140.73 43.248V45.192C141.098 44.648 141.618 44.168 142.29 43.752C142.962 43.32 143.746 43.104 144.642 43.104C145.73 43.104 146.586 43.384 147.21 43.944C147.85 44.488 148.17 45.272 148.17 46.296V51.096C148.17 51.816 148.218 52.336 148.314 52.656C148.41 52.96 148.578 53.16 148.818 53.256C149.074 53.336 149.434 53.408 149.898 53.472L150.282 53.52V54.072L147.33 54L144.378 54.072V53.52L144.762 53.472C145.226 53.408 145.578 53.336 145.818 53.256C146.074 53.16 146.25 52.96 146.346 52.656C146.442 52.336 146.49 51.816 146.49 51.096V46.296C146.49 45.496 146.282 44.888 145.866 44.472C145.45 44.04 144.866 43.824 144.114 43.824C143.538 43.824 143.018 43.96 142.554 44.232C142.09 44.488 141.706 44.808 141.402 45.192C141.098 45.576 140.874 45.944 140.73 46.296V51.096C140.73 51.816 140.778 52.336 140.874 52.656C140.97 52.96 141.138 53.16 141.378 53.256C141.634 53.336 141.994 53.408 142.458 53.472L142.842 53.52V54.072L139.89 54L136.938 54.072ZM151.211 54.072V53.52L151.595 53.472C152.059 53.408 152.411 53.336 152.651 53.256C152.907 53.16 153.083 52.96 153.179 52.656C153.275 52.336 153.323 51.816 153.323 51.096V46.032C153.323 45.2 153.147 44.672 152.795 44.448C152.459 44.208 151.987 44.088 151.379 44.088H151.211V43.536C151.867 43.536 152.499 43.52 153.107 43.488C153.715 43.44 154.347 43.36 155.003 43.248V51.096C155.003 51.816 155.051 52.336 155.147 52.656C155.243 52.96 155.411 53.16 155.651 53.256C155.907 53.336 156.267 53.408 156.731 53.472L157.115 53.52V54.072L154.163 54L151.211 54.072ZM153.875 40.44C153.459 40.44 153.131 40.296 152.891 40.008C152.651 39.72 152.531 39.376 152.531 38.976C152.531 38.56 152.651 38.216 152.891 37.944C153.131 37.656 153.459 37.512 153.875 37.512C154.339 37.512 154.675 37.656 154.883 37.944C155.107 38.216 155.219 38.56 155.219 38.976C155.219 39.376 155.107 39.72 154.883 40.008C154.675 40.296 154.339 40.44 153.875 40.44ZM158.199 54.072V53.472L158.679 53.424C159.239 53.36 159.663 53.28 159.951 53.184C160.255 53.072 160.463 52.848 160.575 52.512C160.687 52.16 160.743 51.592 160.743 50.808V40.152C160.743 39.352 160.687 38.784 160.575 38.448C160.463 38.112 160.255 37.896 159.951 37.8C159.663 37.688 159.239 37.6 158.679 37.536L158.199 37.488V36.888L161.751 36.96H163.095L168.807 50.808L175.119 36.96H176.559L179.919 36.888V37.488L179.439 37.536C178.895 37.6 178.471 37.688 178.167 37.8C177.863 37.896 177.655 38.112 177.543 38.448C177.431 38.784 177.375 39.352 177.375 40.152V50.808C177.375 51.592 177.431 52.16 177.543 52.512C177.655 52.864 177.863 53.088 178.167 53.184C178.471 53.28 178.895 53.36 179.439 53.424L179.919 53.472V54.072L176.367 54L172.791 54.072V53.472L173.271 53.424C173.831 53.36 174.255 53.28 174.543 53.184C174.847 53.088 175.055 52.864 175.167 52.512C175.279 52.16 175.335 51.592 175.335 50.808V38.472L168.231 54H167.775L161.583 38.712V51.48C161.583 51.992 161.647 52.376 161.775 52.632C161.903 52.888 162.111 53.072 162.399 53.184C162.703 53.28 163.119 53.36 163.647 53.424L164.127 53.472V54.072L161.079 54L158.199 54.072ZM181.563 54.072V53.52L181.947 53.472C182.411 53.408 182.763 53.336 183.003 53.256C183.259 53.16 183.435 52.96 183.531 52.656C183.627 52.336 183.675 51.816 183.675 51.096V46.032C183.675 45.2 183.499 44.672 183.147 44.448C182.811 44.208 182.339 44.088 181.731 44.088H181.563V43.536C182.219 43.536 182.851 43.52 183.459 43.488C184.067 43.44 184.699 43.36 185.355 43.248V51.096C185.355 51.816 185.403 52.336 185.499 52.656C185.595 52.96 185.763 53.16 186.003 53.256C186.259 53.336 186.619 53.408 187.083 53.472L187.467 53.52V54.072L184.515 54L181.563 54.072ZM184.227 40.44C183.811 40.44 183.483 40.296 183.243 40.008C183.003 39.72 182.883 39.376 182.883 38.976C182.883 38.56 183.003 38.216 183.243 37.944C183.483 37.656 183.811 37.512 184.227 37.512C184.691 37.512 185.027 37.656 185.235 37.944C185.459 38.216 185.571 38.56 185.571 38.976C185.571 39.376 185.459 39.72 185.235 40.008C185.027 40.296 184.691 40.44 184.227 40.44ZM188.383 54.072V53.52L188.767 53.472C189.231 53.408 189.583 53.336 189.823 53.256C190.079 53.16 190.255 52.96 190.351 52.656C190.447 52.336 190.495 51.816 190.495 51.096V46.032C190.495 45.456 190.407 45.032 190.231 44.76C190.071 44.472 189.831 44.288 189.511 44.208C189.191 44.128 188.815 44.088 188.383 44.088V43.536C189.039 43.536 189.671 43.52 190.279 43.488C190.887 43.44 191.519 43.36 192.175 43.248V45.12C192.527 44.576 193.015 44.104 193.639 43.704C194.279 43.304 195.015 43.104 195.847 43.104C196.695 43.104 197.399 43.288 197.959 43.656C198.535 44.008 198.919 44.568 199.111 45.336C199.447 44.76 199.943 44.248 200.599 43.8C201.255 43.336 202.031 43.104 202.927 43.104C203.967 43.104 204.791 43.376 205.399 43.92C206.023 44.464 206.335 45.328 206.335 46.512V51.096C206.335 51.8 206.375 52.312 206.455 52.632C206.551 52.936 206.719 53.136 206.959 53.232C207.215 53.328 207.575 53.408 208.039 53.472L208.423 53.52V54.072L205.495 54L202.783 54.072V53.52L203.167 53.472C203.567 53.424 203.871 53.352 204.079 53.256C204.303 53.16 204.455 52.96 204.535 52.656C204.615 52.336 204.655 51.816 204.655 51.096V46.104C204.655 45.4 204.463 44.848 204.079 44.448C203.695 44.032 203.151 43.824 202.447 43.824C201.871 43.824 201.367 43.952 200.935 44.208C200.503 44.464 200.143 44.784 199.855 45.168C199.583 45.552 199.383 45.928 199.255 46.296C199.255 46.36 199.255 46.432 199.255 46.512V51.096C199.255 51.816 199.295 52.336 199.375 52.656C199.455 52.96 199.599 53.16 199.807 53.256C200.031 53.336 200.343 53.408 200.743 53.472L201.127 53.52V54.072L198.415 54L195.703 54.072V53.52L196.087 53.472C196.487 53.408 196.791 53.336 196.999 53.256C197.223 53.16 197.375 52.96 197.455 52.656C197.535 52.336 197.575 51.816 197.575 51.096V46.104C197.575 45.4 197.383 44.848 196.999 44.448C196.615 44.032 196.071 43.824 195.367 43.824C194.807 43.824 194.311 43.952 193.879 44.208C193.447 44.464 193.087 44.784 192.799 45.168C192.511 45.552 192.303 45.928 192.175 46.296V51.096C192.175 51.816 192.215 52.336 192.295 52.656C192.375 52.96 192.519 53.16 192.727 53.256C192.951 53.336 193.263 53.408 193.663 53.472L194.047 53.52V54.072L191.335 54L188.383 54.072Z" fill="white"/>
<path d="M132 86.5H295C300.247 86.5 304.5 90.7533 304.5 96V104C304.5 109.247 300.247 113.5 295 113.5H132C126.753 113.5 122.5 109.247 122.5 104V96C122.5 90.7533 126.753 86.5 132 86.5Z" stroke="white"/>
<path d="M178.72 107.054V106.604L179.08 106.568C179.5 106.52 179.818 106.46 180.034 106.388C180.262 106.304 180.418 106.136 180.502 105.884C180.586 105.62 180.628 105.194 180.628 104.606V96.614C180.628 96.014 180.586 95.588 180.502 95.336C180.418 95.084 180.262 94.922 180.034 94.85C179.818 94.766 179.5 94.7 179.08 94.652L178.72 94.616V94.166L181.42 94.22L183.742 94.166V94.58L183.454 94.616C183.106 94.652 182.836 94.706 182.644 94.778C182.464 94.85 182.338 95.006 182.266 95.246C182.194 95.474 182.158 95.858 182.158 96.398V103.904C182.158 104.492 182.188 104.978 182.248 105.362C182.32 105.746 182.506 106.028 182.806 106.208C183.106 106.388 183.592 106.478 184.264 106.478H185.614C186.658 106.478 187.408 106.202 187.864 105.65C188.332 105.086 188.608 104.276 188.692 103.22H189.088L188.908 107.054L181.384 107L178.72 107.054ZM194.675 107.198C193.907 107.198 193.205 107.012 192.569 106.64C191.945 106.268 191.447 105.77 191.075 105.146C190.715 104.51 190.535 103.808 190.535 103.04C190.535 102.248 190.715 101.534 191.075 100.898C191.447 100.262 191.945 99.758 192.569 99.386C193.205 99.014 193.907 98.828 194.675 98.828C195.455 98.828 196.157 99.014 196.781 99.386C197.405 99.758 197.897 100.262 198.257 100.898C198.629 101.534 198.815 102.248 198.815 103.04C198.815 103.808 198.629 104.51 198.257 105.146C197.897 105.77 197.405 106.268 196.781 106.64C196.157 107.012 195.455 107.198 194.675 107.198ZM194.675 106.748C195.323 106.748 195.845 106.586 196.241 106.262C196.637 105.926 196.925 105.482 197.105 104.93C197.285 104.366 197.375 103.736 197.375 103.04C197.375 102.32 197.285 101.678 197.105 101.114C196.925 100.55 196.637 100.106 196.241 99.782C195.845 99.446 195.323 99.278 194.675 99.278C194.027 99.278 193.505 99.446 193.109 99.782C192.713 100.106 192.425 100.55 192.245 101.114C192.065 101.678 191.975 102.32 191.975 103.04C191.975 103.736 192.065 104.366 192.245 104.93C192.425 105.482 192.713 105.926 193.109 106.262C193.505 106.586 194.027 106.748 194.675 106.748ZM204.157 104.624C203.749 104.624 203.353 104.564 202.969 104.444C202.645 104.516 202.339 104.642 202.051 104.822C201.775 104.99 201.637 105.218 201.637 105.506C201.637 105.758 201.727 105.95 201.907 106.082C202.087 106.202 202.321 106.286 202.609 106.334C202.897 106.37 203.209 106.4 203.545 106.424L204.337 106.46C205.093 106.496 205.777 106.58 206.389 106.712C207.001 106.832 207.487 107.072 207.847 107.432C208.219 107.792 208.405 108.344 208.405 109.088C208.405 109.772 208.201 110.348 207.793 110.816C207.397 111.296 206.875 111.662 206.227 111.914C205.591 112.166 204.901 112.292 204.157 112.292C203.413 112.292 202.705 112.19 202.033 111.986C201.373 111.782 200.833 111.47 200.413 111.05C200.005 110.63 199.801 110.09 199.801 109.43C199.801 109.046 199.891 108.728 200.071 108.476C200.263 108.224 200.509 108.098 200.809 108.098C201.013 108.098 201.187 108.152 201.331 108.26C201.475 108.38 201.547 108.554 201.547 108.782C201.547 108.986 201.511 109.148 201.439 109.268C201.367 109.4 201.289 109.532 201.205 109.664C201.133 109.796 201.097 109.964 201.097 110.168C201.097 110.576 201.235 110.9 201.511 111.14C201.799 111.392 202.171 111.572 202.627 111.68C203.095 111.788 203.605 111.842 204.157 111.842C204.769 111.842 205.333 111.752 205.849 111.572C206.365 111.392 206.779 111.122 207.091 110.762C207.415 110.414 207.577 109.982 207.577 109.466C207.577 108.926 207.361 108.53 206.929 108.278C206.509 108.038 205.855 107.894 204.967 107.846L203.131 107.756C202.771 107.732 202.387 107.684 201.979 107.612C201.583 107.54 201.247 107.39 200.971 107.162C200.695 106.946 200.557 106.616 200.557 106.172C200.557 105.704 200.749 105.296 201.133 104.948C201.529 104.6 201.967 104.36 202.447 104.228C201.967 103.976 201.577 103.634 201.277 103.202C200.977 102.77 200.827 102.278 200.827 101.726C200.827 101.174 200.971 100.682 201.259 100.25C201.559 99.818 201.961 99.476 202.465 99.224C202.969 98.96 203.533 98.828 204.157 98.828C204.877 98.828 205.519 99.002 206.083 99.35C206.335 99.002 206.641 98.756 207.001 98.612C207.361 98.456 207.721 98.378 208.081 98.378C208.453 98.378 208.771 98.474 209.035 98.666C209.311 98.846 209.449 99.092 209.449 99.404C209.449 99.656 209.365 99.854 209.197 99.998C209.041 100.13 208.867 100.196 208.675 100.196C208.231 100.196 207.961 99.944 207.865 99.44C207.841 99.296 207.787 99.176 207.703 99.08C207.631 98.984 207.517 98.936 207.361 98.936C207.169 98.936 206.989 99.008 206.821 99.152C206.665 99.284 206.533 99.428 206.425 99.584C206.749 99.848 207.007 100.166 207.199 100.538C207.391 100.91 207.487 101.306 207.487 101.726C207.487 102.266 207.337 102.758 207.037 103.202C206.749 103.634 206.353 103.982 205.849 104.246C205.345 104.498 204.781 104.624 204.157 104.624ZM204.157 104.174C204.865 104.174 205.363 103.94 205.651 103.472C205.951 103.004 206.101 102.422 206.101 101.726C206.101 101.03 205.951 100.448 205.651 99.98C205.363 99.512 204.865 99.278 204.157 99.278C203.461 99.278 202.963 99.512 202.663 99.98C202.363 100.448 202.213 101.03 202.213 101.726C202.213 102.422 202.363 103.004 202.663 103.472C202.963 103.94 203.461 104.174 204.157 104.174ZM210.092 107.054V106.64L210.38 106.604C210.728 106.556 210.992 106.502 211.172 106.442C211.364 106.37 211.496 106.22 211.568 105.992C211.64 105.752 211.676 105.362 211.676 104.822V101.024C211.676 100.4 211.544 100.004 211.28 99.836C211.028 99.656 210.674 99.566 210.218 99.566H210.092V99.152C210.584 99.152 211.058 99.14 211.514 99.116C211.97 99.08 212.444 99.02 212.936 98.936V104.822C212.936 105.362 212.972 105.752 213.044 105.992C213.116 106.22 213.242 106.37 213.422 106.442C213.614 106.502 213.884 106.556 214.232 106.604L214.52 106.64V107.054L212.306 107L210.092 107.054ZM212.09 96.83C211.778 96.83 211.532 96.722 211.352 96.506C211.172 96.29 211.082 96.032 211.082 95.732C211.082 95.42 211.172 95.162 211.352 94.958C211.532 94.742 211.778 94.634 212.09 94.634C212.438 94.634 212.69 94.742 212.846 94.958C213.014 95.162 213.098 95.42 213.098 95.732C213.098 96.032 213.014 96.29 212.846 96.506C212.69 96.722 212.438 96.83 212.09 96.83ZM215.207 107.054V106.64L215.495 106.604C215.843 106.556 216.107 106.502 216.287 106.442C216.479 106.37 216.611 106.22 216.683 105.992C216.755 105.752 216.791 105.362 216.791 104.822V101.024C216.791 100.4 216.659 100.004 216.395 99.836C216.143 99.656 215.789 99.566 215.333 99.566H215.207V99.152C215.699 99.152 216.173 99.14 216.629 99.116C217.085 99.08 217.559 99.02 218.051 98.936V100.394C218.327 99.986 218.717 99.626 219.221 99.314C219.725 98.99 220.313 98.828 220.985 98.828C221.801 98.828 222.443 99.038 222.911 99.458C223.391 99.866 223.631 100.454 223.631 101.222V104.822C223.631 105.362 223.667 105.752 223.739 105.992C223.811 106.22 223.937 106.37 224.117 106.442C224.309 106.502 224.579 106.556 224.927 106.604L225.215 106.64V107.054L223.001 107L220.787 107.054V106.64L221.075 106.604C221.423 106.556 221.687 106.502 221.867 106.442C222.059 106.37 222.191 106.22 222.263 105.992C222.335 105.752 222.371 105.362 222.371 104.822V101.222C222.371 100.622 222.215 100.166 221.903 99.854C221.591 99.53 221.153 99.368 220.589 99.368C220.157 99.368 219.767 99.47 219.419 99.674C219.071 99.866 218.783 100.106 218.555 100.394C218.327 100.682 218.159 100.958 218.051 101.222V104.822C218.051 105.362 218.087 105.752 218.159 105.992C218.231 106.22 218.357 106.37 218.537 106.442C218.729 106.502 218.999 106.556 219.347 106.604L219.635 106.64V107.054L217.421 107L215.207 107.054Z" fill="white"/>
</svg>
