<svg width="21" height="20" viewBox="0 0 21 20" fill="none" xmlns="http://www.w3.org/2000/svg">
<path d="M20.7318 0.367152C20.8168 0.483241 20.8843 0.621149 20.9303 0.772978C20.9763 0.924807 21 1.08757 21 1.25195C21 1.41634 20.9763 1.5791 20.9303 1.73093C20.8843 1.88276 20.8168 2.02067 20.7318 2.13676L7.95088 19.6328C7.86608 19.7492 7.76534 19.8416 7.65443 19.9046C7.54352 19.9676 7.42461 20 7.30453 20C7.18445 20 7.06555 19.9676 6.95464 19.9046C6.84373 19.8416 6.74299 19.7492 6.65818 19.6328L0.267726 10.8848C0.0963039 10.6501 0 10.3319 0 10C0 9.66813 0.0963039 9.34986 0.267726 9.1152C0.439149 8.88053 0.671648 8.7487 0.914076 8.7487C1.1565 8.7487 1.389 8.88053 1.56042 9.1152L7.30453 16.9809L19.4391 0.367152C19.5239 0.25077 19.6246 0.158434 19.7356 0.0954319C19.8465 0.0324299 19.9654 0 20.0854 0C20.2055 0 20.3244 0.0324299 20.4353 0.0954319C20.5462 0.158434 20.647 0.25077 20.7318 0.367152Z" fill="white"/>
</svg>
