<svg width="16" height="16" viewBox="0 0 16 16" fill="none" xmlns="http://www.w3.org/2000/svg">
<path d="M15.4345 0.293722C15.4945 0.386592 15.5422 0.496919 15.5747 0.618382C15.6072 0.739845 15.624 0.870059 15.624 1.00156C15.624 1.13307 15.6072 1.26328 15.5747 1.38475C15.5422 1.50621 15.4945 1.61654 15.4345 1.70941L6.40346 15.7063C6.34353 15.7994 6.27235 15.8733 6.19398 15.9237C6.11561 15.9741 6.03159 16 5.94674 16C5.86189 16 5.77788 15.9741 5.69951 15.9237C5.62114 15.8733 5.54996 15.7994 5.49003 15.7063L0.97453 8.70784C0.853403 8.52011 0.785355 8.26549 0.785355 8C0.785355 7.73451 0.853403 7.47989 0.97453 7.29216C1.09566 7.10443 1.25994 6.99896 1.43124 6.99896C1.60254 6.99896 1.76683 7.10443 1.88795 7.29216L5.94674 13.5848L14.521 0.293722C14.581 0.200616 14.6521 0.126747 14.7305 0.0763456C14.8089 0.0259439 14.8929 0 14.9778 0C15.0626 0 15.1466 0.0259439 15.225 0.0763456C15.3034 0.126747 15.3745 0.200616 15.4345 0.293722Z" fill="white"/>
</svg>
