<svg width="20" height="16" viewBox="0 0 20 16" fill="none" xmlns="http://www.w3.org/2000/svg">
<path d="M19.1763 0.293722C19.2536 0.386592 19.315 0.496919 19.3568 0.618382C19.3987 0.739845 19.4202 0.870059 19.4202 1.00156C19.4202 1.13307 19.3987 1.26328 19.3568 1.38475C19.315 1.50621 19.2536 1.61654 19.1763 1.70941L7.55127 15.7063C7.47413 15.7994 7.3825 15.8733 7.28162 15.9237C7.18074 15.9741 7.07259 16 6.96337 16C6.85415 16 6.74601 15.9741 6.64512 15.9237C6.54424 15.8733 6.45261 15.7994 6.37548 15.7063L0.562971 8.70784C0.407052 8.52011 0.319458 8.26549 0.319458 8C0.319458 7.73451 0.407052 7.47989 0.562971 7.29216C0.71889 7.10443 0.930362 6.99896 1.15087 6.99896C1.37137 6.99896 1.58284 7.10443 1.73876 7.29216L6.96337 13.5848L18.0005 0.293722C18.0776 0.200616 18.1693 0.126747 18.2701 0.0763456C18.371 0.0259439 18.4792 0 18.5884 0C18.6976 0 18.8058 0.0259439 18.9066 0.0763456C19.0075 0.126747 19.0992 0.200616 19.1763 0.293722Z" fill="white"/>
</svg>
