<svg width="15" height="17" viewBox="0 0 15 17" fill="none" xmlns="http://www.w3.org/2000/svg">
<path d="M1.15911 0.478806C1.24894 0.369295 1.35565 0.28241 1.47314 0.223128C1.59063 0.163845 1.71658 0.133331 1.84378 0.133331C1.97098 0.133331 2.09693 0.163845 2.21442 0.223128C2.33191 0.28241 2.43862 0.369295 2.52845 0.478806L7.64609 6.7042L12.7637 0.478806C12.8536 0.369472 12.9604 0.282744 13.0779 0.223573C13.1953 0.164402 13.3212 0.133947 13.4484 0.133947C13.5755 0.133947 13.7015 0.164402 13.8189 0.223573C13.9364 0.282744 14.0432 0.369472 14.1331 0.478806C14.223 0.588139 14.2943 0.717937 14.343 0.860788C14.3916 1.00364 14.4167 1.15675 14.4167 1.31137C14.4167 1.46599 14.3916 1.6191 14.343 1.76195C14.2943 1.9048 14.223 2.0346 14.1331 2.14393L9.0135 8.36697L14.1331 14.59C14.223 14.6994 14.2943 14.8291 14.343 14.972C14.3916 15.1149 14.4167 15.268 14.4167 15.4226C14.4167 15.5772 14.3916 15.7303 14.343 15.8732C14.2943 16.016 14.223 16.1458 14.1331 16.2551C14.0432 16.3645 13.9364 16.4512 13.8189 16.5104C13.7015 16.5695 13.5755 16.6 13.4484 16.6C13.3212 16.6 13.1953 16.5695 13.0779 16.5104C12.9604 16.4512 12.8536 16.3645 12.7637 16.2551L7.64609 10.0297L2.52845 16.2551C2.43854 16.3645 2.3318 16.4512 2.21432 16.5104C2.09685 16.5695 1.97093 16.6 1.84378 16.6C1.71662 16.6 1.59071 16.5695 1.47324 16.5104C1.35576 16.4512 1.24902 16.3645 1.15911 16.2551C1.06919 16.1458 0.997872 16.016 0.949212 15.8732C0.900552 15.7303 0.875506 15.5772 0.875506 15.4226C0.875506 15.268 0.900552 15.1149 0.949212 14.972C0.997872 14.8291 1.06919 14.6994 1.15911 14.59L6.27868 8.36697L1.15911 2.14393C1.06905 2.03469 0.997597 1.90493 0.948846 1.76206C0.900094 1.6192 0.875 1.46604 0.875 1.31137C0.875 1.15669 0.900094 1.00353 0.948846 0.86067C0.997597 0.717805 1.06905 0.58804 1.15911 0.478806Z" fill="#484A4A"/>
</svg>
