<svg width="50" height="40" viewBox="0 0 50 40" fill="none" xmlns="http://www.w3.org/2000/svg">
<g clip-path="url(#clip0)">
<path d="M24.5566 37.5063C36.565 37.5063 46.2997 29.4474 46.2997 19.5063C46.2997 9.56519 36.565 1.50632 24.5566 1.50632C12.5482 1.50632 2.81345 9.56519 2.81345 19.5063C2.81345 29.4474 12.5482 37.5063 24.5566 37.5063Z" fill="white"/>
<path d="M24.5566 2.45571C30.0612 2.45571 35.2294 4.22786 39.1284 7.45571C43.0122 10.6709 45.1682 14.962 45.1682 19.519C45.1682 24.076 43.0275 28.3544 39.1284 31.5823C35.2446 34.7975 30.0612 36.5823 24.5566 36.5823C19.052 36.5823 13.8838 34.8101 9.98471 31.5823C6.10091 28.3671 3.94495 24.076 3.94495 19.519C3.94495 14.962 6.08562 10.6836 9.98471 7.45571C13.8838 4.22786 19.0673 2.45571 24.5566 2.45571ZM24.5566 0.556976C11.9266 0.556976 1.66666 9.03799 1.66666 19.5063C1.66666 29.9747 11.9113 38.4557 24.5566 38.4557C37.2018 38.4557 47.4465 29.9747 47.4465 19.5063C47.4465 9.03799 37.2018 0.556976 24.5566 0.556976Z" fill="#64DD17"/>
<path d="M20.1223 25.4177L28.1804 18.7595V15.7342C28.1804 14.1266 26.7278 12.4937 24.4648 11.4937V10.6836H23.2722V11.7975C23.2722 11.9874 23.4098 12.1646 23.6086 12.2405C25.6575 13.0506 26.9878 14.4177 26.9878 15.7215V16.7848H15.9939V28.6836H15.4281C14.8471 28.6836 14.3884 28.2911 14.3884 27.8101V15.7215C14.3884 15.3544 14.9694 13.2911 17.7676 12.1772C17.9817 12.0886 18.104 11.9241 18.104 11.7342V10.6709H16.9113V11.4304C13.8379 12.7975 13.1957 15.1519 13.1957 15.7215V27.8101C13.1957 28.8354 14.2049 29.6709 15.4434 29.6709H21.3456C20.7339 28.962 20.2141 28.1266 19.7248 27.1266C19.4037 26.5443 19.5719 25.8734 20.1223 25.4177Z" fill="#64DD17"/>
<path d="M25.367 9.02532V5.9114C25.367 5.53166 25 5.22786 24.5413 5.22786H16.8196C16.3609 5.22786 15.9939 5.53166 15.9939 5.9114V9.01267C15.9939 9.39241 16.3609 9.69621 16.8196 9.69621H24.5566C25 9.69621 25.367 9.39241 25.367 9.02532Z" fill="#64DD17"/>
<path d="M43.5627 18.2658L37.4312 13.2025C37.1713 12.9874 36.7584 12.9874 36.4985 13.2025C36.2385 13.4177 36.2385 13.7595 36.4985 13.9747L37.5077 14.8101L34.052 17.6709L31.4679 15.5317C31.208 15.3165 30.7951 15.3165 30.5352 15.5317C30.2752 15.7468 30.2752 16.0886 30.5352 16.3038L31.8043 17.3544L29.4495 19.3038L26.8654 21.3924L28.3945 22.6582C28.6239 22.8481 28.6239 23.1646 28.3945 23.3544C28.2722 23.4557 28.1193 23.4937 27.9664 23.4937C27.8135 23.4937 27.6606 23.4431 27.5382 23.3544L26.0092 22.0886L23.8685 23.8608L25.3976 25.1266C25.6269 25.3165 25.6269 25.6329 25.3976 25.8228C25.2752 25.9241 25.1223 25.962 24.9694 25.962C24.8165 25.962 24.6636 25.9114 24.5413 25.8228L23.0275 24.557L21.0551 26.1899C20.8869 26.3291 20.8257 26.5443 20.9174 26.7342C21.4985 27.9114 22.1101 28.8101 22.8593 29.557L17.4465 34.0507C17.1865 34.2658 17.1865 34.6076 17.4465 34.8228C17.5688 34.9241 17.737 34.9874 17.9205 34.9874C18.0887 34.9874 18.2569 34.9367 18.3945 34.8228L23.8226 30.3291C24.7095 30.962 25.8104 31.4557 27.2324 31.9367C27.3089 31.962 27.3853 31.9747 27.4618 31.9747C27.6147 31.9747 27.7676 31.9241 27.8899 31.8228L38.5933 22.9367L39.8624 23.9874C40.0918 24.1772 40.5199 24.2152 40.7951 23.9874C41.0551 23.7722 41.0551 23.4304 40.7951 23.2152L38.211 21.076L41.6667 18.2152L42.6759 19.038C42.7982 19.1393 42.9664 19.2025 43.1499 19.2025C43.3181 19.2025 43.4862 19.1519 43.6239 19.038C43.8226 18.8228 43.8226 18.481 43.5627 18.2658ZM28.3028 21.6203L29.8624 20.3291L30.7034 21.0253C30.9327 21.2152 31.3303 21.2025 31.5444 21.0253C31.7584 20.8481 31.7584 20.4937 31.5444 20.3291L30.7034 19.6329L32.6453 18.038L36.9725 21.6203H28.3028ZM37.2477 20.2912L35 18.4304L38.4557 15.5696L40.7034 17.4304L37.2477 20.2912Z" fill="#64DD17"/>
<path d="M40.6231 -0.0996203C40.7832 0.0774538 40.9102 0.287811 40.9968 0.519401C41.0835 0.750992 41.1281 0.999267 41.1281 1.25C41.1281 1.50074 41.0835 1.74902 40.9968 1.98061C40.9102 2.2122 40.7832 2.42256 40.6231 2.59963L16.5606 29.2871C16.401 29.4646 16.2113 29.6055 16.0025 29.7016C15.7937 29.7977 15.5698 29.8472 15.3437 29.8472C15.1177 29.8472 14.8938 29.7977 14.685 29.7016C14.4762 29.6055 14.2865 29.4646 14.1269 29.2871L2.09562 15.9434C1.77289 15.5854 1.59158 15.1 1.59158 14.5938C1.59158 14.0875 1.77289 13.6021 2.09562 13.2441C2.41836 12.8862 2.85608 12.6851 3.3125 12.6851C3.76891 12.6851 4.20664 12.8862 4.52937 13.2441L15.3437 25.2421L38.1894 -0.0996203C38.349 -0.277143 38.5387 -0.417987 38.7475 -0.514086C38.9563 -0.610186 39.1802 -0.659653 39.4062 -0.659653C39.6323 -0.659653 39.8562 -0.610186 40.065 -0.514086C40.2738 -0.417987 40.4635 -0.277143 40.6231 -0.0996203Z" fill="#00C853"/>
</g>
<defs>
<clipPath id="clip0">
<rect width="50" height="40" fill="white"/>
</clipPath>
</defs>
</svg>
