<svg width="24" height="17" viewBox="0 0 24 17" fill="none" xmlns="http://www.w3.org/2000/svg">
<path d="M1.25513 2.36585C1.25513 1.77989 1.73014 1.30487 2.3161 1.30487H21.6839C22.2699 1.30487 22.7449 1.77989 22.7449 2.36585C22.7449 2.95181 22.2699 3.42682 21.6839 3.42682H2.3161C1.73014 3.42682 1.25513 2.95181 1.25513 2.36585Z" fill="white" stroke="white"/>
<path d="M1.25513 8.60974C1.25513 8.02378 1.73014 7.54877 2.3161 7.54877H21.684C22.2699 7.54877 22.7449 8.02378 22.7449 8.60974C22.7449 9.1957 22.2699 9.67072 21.6839 9.67072H2.3161C1.73014 9.67072 1.25513 9.1957 1.25513 8.60974Z" fill="white" stroke="white"/>
<path d="M1.25513 14.8537C1.25513 14.2677 1.73014 13.7927 2.3161 13.7927H21.6839C22.2699 13.7927 22.7449 14.2677 22.7449 14.8537C22.7449 15.4396 22.2699 15.9146 21.6839 15.9146H2.3161C1.73014 15.9146 1.25513 15.4396 1.25513 14.8537Z" fill="white" stroke="white"/>
</svg>
