<svg width="20" height="20" viewBox="0 0 20 20" fill="none" xmlns="http://www.w3.org/2000/svg">
<path d="M16.8725 0.99375L17.0588 0.8075C17.1989 0.667396 17.3654 0.556275 17.5485 0.480483C17.7316 0.40469 17.9279 0.36571 18.1261 0.365768C18.3243 0.365827 18.5205 0.404921 18.7036 0.480821C18.8867 0.556721 19.053 0.667938 19.1931 0.808125C19.3332 0.948311 19.4444 1.11472 19.5202 1.29785C19.5959 1.48098 19.6349 1.67725 19.6349 1.87544C19.6348 2.07364 19.5957 2.26988 19.5198 2.45297C19.4439 2.63605 19.3327 2.8024 19.1925 2.9425L19.0063 3.1275C19.3249 3.48483 19.4947 3.95049 19.481 4.42904C19.4673 4.90758 19.2711 5.36275 18.9325 5.70125L6.06751 18.5675C5.98709 18.6475 5.88641 18.7041 5.77626 18.7313L0.776264 19.9813C0.67163 20.0073 0.562034 20.0058 0.45813 19.977C0.354226 19.9482 0.25955 19.893 0.183302 19.8167C0.107055 19.7405 0.0518318 19.6458 0.0230001 19.5419C-0.0058317 19.438 -0.00729094 19.3284 0.0187642 19.2238L1.26876 14.2238C1.29611 14.1141 1.35271 14.0138 1.43251 13.9338L13.485 1.88125C13.3645 1.79641 13.2178 1.75691 13.071 1.76972C12.9241 1.78253 12.7865 1.84682 12.6825 1.95125L8.56751 6.0675C8.5094 6.12561 8.44042 6.17171 8.36449 6.20315C8.28857 6.2346 8.20719 6.25079 8.12501 6.25079C8.04283 6.25079 7.96146 6.2346 7.88553 6.20315C7.80961 6.17171 7.74062 6.12561 7.68251 6.0675C7.6244 6.00939 7.57831 5.9404 7.54686 5.86448C7.51541 5.78856 7.49922 5.70718 7.49922 5.625C7.49922 5.54282 7.51541 5.46144 7.54686 5.38552C7.57831 5.3096 7.6244 5.24061 7.68251 5.1825L11.8 1.0675C12.1387 0.728769 12.5943 0.532526 13.0731 0.519044C13.5519 0.505562 14.0178 0.675864 14.375 0.995C14.7185 0.688048 15.1629 0.518265 15.6235 0.518034C16.0842 0.517803 16.5288 0.687142 16.8725 0.99375ZM16.0675 1.95125C15.9503 1.83408 15.7914 1.76826 15.6256 1.76826C15.4599 1.76826 15.301 1.83408 15.1838 1.95125L2.43751 14.695L1.48251 18.5163L5.30376 17.5613L18.05 4.8175C18.1082 4.75944 18.1544 4.69047 18.1859 4.61454C18.2174 4.53861 18.2336 4.45721 18.2336 4.375C18.2336 4.29279 18.2174 4.21139 18.1859 4.13546C18.1544 4.05953 18.1082 3.99056 18.05 3.9325L16.0688 1.95125H16.0675Z" fill="#6187C8"/>
</svg>
