<svg width="26" height="26" viewBox="0 0 26 26" fill="none" xmlns="http://www.w3.org/2000/svg">
<path d="M13 6.5C13.2155 6.5 13.4222 6.5856 13.5745 6.73798C13.7269 6.89035 13.8125 7.09701 13.8125 7.3125V12.1875H18.6875C18.903 12.1875 19.1097 12.2731 19.262 12.4255C19.4144 12.5778 19.5 12.7845 19.5 13C19.5 13.2155 19.4144 13.4222 19.262 13.5745C19.1097 13.7269 18.903 13.8125 18.6875 13.8125H13.8125V18.6875C13.8125 18.903 13.7269 19.1097 13.5745 19.262C13.4222 19.4144 13.2155 19.5 13 19.5C12.7845 19.5 12.5778 19.4144 12.4255 19.262C12.2731 19.1097 12.1875 18.903 12.1875 18.6875V13.8125H7.3125C7.09701 13.8125 6.89035 13.7269 6.73798 13.5745C6.5856 13.4222 6.5 13.2155 6.5 13C6.5 12.7845 6.5856 12.5778 6.73798 12.4255C6.89035 12.2731 7.09701 12.1875 7.3125 12.1875H12.1875V7.3125C12.1875 7.09701 12.2731 6.89035 12.4255 6.73798C12.5778 6.5856 12.7845 6.5 13 6.5Z" fill="white"/>
</svg>
