<svg width="26" height="26" viewBox="0 0 26 26" fill="none" xmlns="http://www.w3.org/2000/svg">
<path d="M12.5 7C12.7155 7 12.9222 7.0856 13.0745 7.23798C13.2269 7.39035 13.3125 7.59701 13.3125 7.8125V12.6875H18.1875C18.403 12.6875 18.6097 12.7731 18.762 12.9255C18.9144 13.0778 19 13.2845 19 13.5C19 13.7155 18.9144 13.9222 18.762 14.0745C18.6097 14.2269 18.403 14.3125 18.1875 14.3125H13.3125V19.1875C13.3125 19.403 13.2269 19.6097 13.0745 19.762C12.9222 19.9144 12.7155 20 12.5 20C12.2845 20 12.0778 19.9144 11.9255 19.762C11.7731 19.6097 11.6875 19.403 11.6875 19.1875V14.3125H6.8125C6.59701 14.3125 6.39035 14.2269 6.23798 14.0745C6.0856 13.9222 6 13.7155 6 13.5C6 13.2845 6.0856 13.0778 6.23798 12.9255C6.39035 12.7731 6.59701 12.6875 6.8125 12.6875H11.6875V7.8125C11.6875 7.59701 11.7731 7.39035 11.9255 7.23798C12.0778 7.0856 12.2845 7 12.5 7Z" fill="white"/>
</svg>
