<svg width="50" height="40" viewBox="0 0 50 40" fill="none" xmlns="http://www.w3.org/2000/svg">
<g clip-path="url(#clip0)">
<path d="M24.5566 37.5063C36.565 37.5063 46.2997 29.4474 46.2997 19.5063C46.2997 9.56519 36.565 1.50631 24.5566 1.50631C12.5482 1.50631 2.81345 9.56519 2.81345 19.5063C2.81345 29.4474 12.5482 37.5063 24.5566 37.5063Z" fill="white"/>
<path d="M24.5566 2.45571C30.0612 2.45571 35.2294 4.22786 39.1284 7.45571C43.0122 10.6709 45.1682 14.962 45.1682 19.519C45.1682 24.076 43.0275 28.3544 39.1284 31.5823C35.2446 34.7975 30.0612 36.5823 24.5566 36.5823C19.052 36.5823 13.8838 34.8101 9.98471 31.5823C6.10091 28.3671 3.94495 24.076 3.94495 19.519C3.94495 14.962 6.08562 10.6836 9.98471 7.45571C13.8838 4.22786 19.0673 2.45571 24.5566 2.45571ZM24.5566 0.556979C11.9266 0.556979 1.66666 9.03799 1.66666 19.5063C1.66666 29.9747 11.9113 38.4557 24.5566 38.4557C37.2018 38.4557 47.4465 29.9747 47.4465 19.5063C47.4465 9.03799 37.2018 0.556979 24.5566 0.556979Z" fill="#FF8A80"/>
<path d="M20.1223 25.4177L28.1804 18.7595V15.7342C28.1804 14.1266 26.7278 12.4937 24.4648 11.4937V10.6836H23.2722V11.7975C23.2722 11.9873 23.4098 12.1646 23.6086 12.2405C25.6575 13.0506 26.9878 14.4177 26.9878 15.7215V16.7848H15.9939V28.6835H15.4281C14.8471 28.6835 14.3884 28.2911 14.3884 27.8101V15.7215C14.3884 15.3544 14.9694 13.2911 17.7676 12.1772C17.9817 12.0886 18.104 11.9241 18.104 11.7342V10.6709H16.9113V11.4304C13.8379 12.7975 13.1957 15.1519 13.1957 15.7215V27.8101C13.1957 28.8354 14.2049 29.6709 15.4434 29.6709H21.3456C20.7339 28.962 20.2141 28.1266 19.7248 27.1266C19.4037 26.5443 19.5719 25.8734 20.1223 25.4177Z" fill="#FF8A80"/>
<path d="M25.367 9.02532V5.9114C25.367 5.53165 25 5.22786 24.5413 5.22786H16.8196C16.3609 5.22786 15.9939 5.53165 15.9939 5.9114V9.01266C15.9939 9.39241 16.3609 9.69621 16.8196 9.69621H24.5566C25 9.69621 25.367 9.39241 25.367 9.02532Z" fill="#FF8A80"/>
<path d="M43.5627 18.2658L37.4312 13.2025C37.1713 12.9874 36.7584 12.9874 36.4985 13.2025C36.2385 13.4177 36.2385 13.7595 36.4985 13.9747L37.5077 14.8101L34.052 17.6709L31.4679 15.5317C31.208 15.3165 30.7951 15.3165 30.5352 15.5317C30.2752 15.7468 30.2752 16.0886 30.5352 16.3038L31.8043 17.3544L29.4495 19.3038L26.8654 21.3924L28.3945 22.6582C28.6239 22.8481 28.6239 23.1646 28.3945 23.3544C28.2722 23.4557 28.1193 23.4937 27.9664 23.4937C27.8135 23.4937 27.6606 23.4431 27.5382 23.3544L26.0092 22.0886L23.8685 23.8608L25.3976 25.1266C25.6269 25.3165 25.6269 25.6329 25.3976 25.8228C25.2752 25.9241 25.1223 25.962 24.9694 25.962C24.8165 25.962 24.6636 25.9114 24.5413 25.8228L23.0275 24.557L21.0551 26.1899C20.8869 26.3291 20.8257 26.5443 20.9174 26.7342C21.4985 27.9114 22.1101 28.8101 22.8593 29.557L17.4465 34.0507C17.1865 34.2658 17.1865 34.6076 17.4465 34.8228C17.5688 34.9241 17.737 34.9874 17.9205 34.9874C18.0887 34.9874 18.2569 34.9367 18.3945 34.8228L23.8226 30.3291C24.7095 30.962 25.8104 31.4557 27.2324 31.9367C27.3089 31.962 27.3853 31.9747 27.4618 31.9747C27.6147 31.9747 27.7676 31.9241 27.8899 31.8228L38.5933 22.9367L39.8624 23.9874C40.0918 24.1772 40.5199 24.2152 40.7951 23.9874C41.0551 23.7722 41.0551 23.4304 40.7951 23.2152L38.211 21.076L41.6667 18.2152L42.6759 19.038C42.7982 19.1393 42.9664 19.2025 43.1499 19.2025C43.3181 19.2025 43.4862 19.1519 43.6239 19.038C43.8226 18.8228 43.8226 18.481 43.5627 18.2658ZM28.3028 21.6203L29.8624 20.3291L30.7034 21.0253C30.9327 21.2152 31.3303 21.2025 31.5444 21.0253C31.7584 20.8481 31.7584 20.4937 31.5444 20.3291L30.7034 19.6329L32.6453 18.038L36.9725 21.6203H28.3028ZM37.2477 20.2912L35 18.4304L38.4557 15.5696L40.7034 17.4304L37.2477 20.2912Z" fill="#FF8A80"/>
<path d="M5.19738 -0.287123C5.40929 -0.464645 5.66102 -0.605491 5.93817 -0.70159C6.21532 -0.79769 6.51244 -0.847155 6.8125 -0.847155C7.11257 -0.847155 7.40968 -0.79769 7.68683 -0.70159C7.96398 -0.605491 8.21572 -0.464645 8.42763 -0.287123L20.5 9.80457L32.5724 -0.287123C32.7845 -0.464358 33.0363 -0.604949 33.3134 -0.700868C33.5905 -0.796788 33.8875 -0.846157 34.1875 -0.846157C34.4875 -0.846157 34.7845 -0.796788 35.0616 -0.700868C35.3387 -0.604949 35.5905 -0.464358 35.8026 -0.287123C36.0147 -0.109888 36.183 0.100521 36.2978 0.33209C36.4126 0.563659 36.4716 0.811854 36.4716 1.0625C36.4716 1.31315 36.4126 1.56135 36.2978 1.79291C36.183 2.02448 36.0147 2.23489 35.8026 2.41213L23.7257 12.5L35.8026 22.5879C36.0147 22.7651 36.183 22.9755 36.2978 23.2071C36.4126 23.4387 36.4716 23.6869 36.4716 23.9375C36.4716 24.1882 36.4126 24.4363 36.2978 24.6679C36.183 24.8995 36.0147 25.1099 35.8026 25.2871C35.5905 25.4644 35.3387 25.605 35.0616 25.7009C34.7845 25.7968 34.4875 25.8462 34.1875 25.8462C33.8875 25.8462 33.5905 25.7968 33.3134 25.7009C33.0363 25.605 32.7845 25.4644 32.5724 25.2871L20.5 15.1954L8.42763 25.2871C8.21553 25.4644 7.96373 25.605 7.6866 25.7009C7.40948 25.7968 7.11246 25.8462 6.8125 25.8462C6.51255 25.8462 6.21553 25.7968 5.9384 25.7009C5.66128 25.605 5.40948 25.4644 5.19738 25.2871C4.98528 25.1099 4.81703 24.8995 4.70224 24.6679C4.58745 24.4363 4.52837 24.1882 4.52837 23.9375C4.52837 23.6869 4.58745 23.4387 4.70224 23.2071C4.81703 22.9755 4.98528 22.7651 5.19738 22.5879L17.2743 12.5L5.19738 2.41213C4.98493 2.23505 4.81638 2.0247 4.70138 1.79311C4.58637 1.56152 4.52718 1.31324 4.52718 1.0625C4.52718 0.811764 4.58637 0.56349 4.70138 0.331899C4.81638 0.100308 4.98493 -0.110049 5.19738 -0.287123Z" fill="#FF1744"/>
</g>
<defs>
<clipPath id="clip0">
<rect width="50" height="40" fill="white"/>
</clipPath>
</defs>
</svg>
