<svg width="16" height="28" viewBox="0 0 16 28" fill="none" xmlns="http://www.w3.org/2000/svg">
<path fill-rule="evenodd" clip-rule="evenodd" d="M14.354 14.354C14.3075 14.4006 14.2524 14.4375 14.1916 14.4627C14.1309 14.4879 14.0658 14.5009 14 14.5009C13.9342 14.5009 13.8691 14.4879 13.8084 14.4627C13.7476 14.4375 13.6924 14.4006 13.646 14.354L7.99999 8.707L2.35399 14.354C2.3075 14.4005 2.25231 14.4374 2.19158 14.4625C2.13084 14.4877 2.06573 14.5006 1.99999 14.5006C1.93425 14.5006 1.86915 14.4877 1.80841 14.4625C1.74767 14.4374 1.69248 14.4005 1.64599 14.354C1.5995 14.3075 1.56263 14.2523 1.53747 14.1916C1.51231 14.1308 1.49936 14.0657 1.49936 14C1.49936 13.9343 1.51231 13.8692 1.53747 13.8084C1.56263 13.7477 1.5995 13.6925 1.64599 13.646L7.64599 7.646C7.69244 7.59944 7.74761 7.56249 7.80836 7.53729C7.8691 7.51208 7.93422 7.49911 7.99999 7.49911C8.06576 7.49911 8.13088 7.51208 8.19162 7.53729C8.25237 7.56249 8.30755 7.59944 8.35399 7.646L14.354 13.646C14.4006 13.6924 14.4375 13.7476 14.4627 13.8084C14.4879 13.8691 14.5009 13.9342 14.5009 14C14.5009 14.0658 14.4879 14.1309 14.4627 14.1916C14.4375 14.2524 14.4006 14.3076 14.354 14.354Z" fill="black"/>
<path fill-rule="evenodd" clip-rule="evenodd" d="M1.64601 16.646C1.69245 16.5994 1.74763 16.5625 1.80838 16.5373C1.86912 16.5121 1.93424 16.4991 2.00001 16.4991C2.06578 16.4991 2.1309 16.5121 2.19164 16.5373C2.25239 16.5625 2.30756 16.5994 2.35401 16.646L8.00001 22.293L13.646 16.646C13.6925 16.5995 13.7477 16.5626 13.8084 16.5375C13.8692 16.5123 13.9343 16.4994 14 16.4994C14.0658 16.4994 14.1309 16.5123 14.1916 16.5375C14.2523 16.5626 14.3075 16.5995 14.354 16.646C14.4005 16.6925 14.4374 16.7477 14.4625 16.8084C14.4877 16.8692 14.5006 16.9343 14.5006 17C14.5006 17.0657 14.4877 17.1308 14.4625 17.1916C14.4374 17.2523 14.4005 17.3075 14.354 17.354L8.35401 23.354C8.30756 23.4006 8.25239 23.4375 8.19164 23.4627C8.1309 23.4879 8.06578 23.5009 8.00001 23.5009C7.93424 23.5009 7.86912 23.4879 7.80838 23.4627C7.74763 23.4375 7.69245 23.4006 7.64601 23.354L1.64601 17.354C1.59945 17.3076 1.5625 17.2524 1.5373 17.1916C1.51209 17.1309 1.49911 17.0658 1.49911 17C1.49911 16.9342 1.51209 16.8691 1.5373 16.8084C1.5625 16.7476 1.59945 16.6924 1.64601 16.646Z" fill="black"/>
</svg>
