<svg width="16" height="25" viewBox="0 0 16 25" fill="none" xmlns="http://www.w3.org/2000/svg">
<path fill-rule="evenodd" clip-rule="evenodd" d="M14.354 13.646C14.3075 13.5994 14.2524 13.5625 14.1916 13.5373C14.1309 13.5121 14.0658 13.4991 14 13.4991C13.9342 13.4991 13.8691 13.5121 13.8084 13.5373C13.7476 13.5625 13.6924 13.5994 13.646 13.646L7.99999 19.293L2.35399 13.646C2.3075 13.5995 2.25231 13.5626 2.19158 13.5375C2.13084 13.5123 2.06573 13.4994 1.99999 13.4994C1.93425 13.4994 1.86915 13.5123 1.80841 13.5375C1.74767 13.5626 1.69248 13.5995 1.64599 13.646C1.5995 13.6925 1.56263 13.7477 1.53747 13.8084C1.51231 13.8691 1.49936 13.9342 1.49936 14C1.49936 14.0657 1.51231 14.1308 1.53747 14.1916C1.56263 14.2523 1.5995 14.3075 1.64599 14.354L7.64599 20.354C7.69244 20.4006 7.74761 20.4375 7.80836 20.4627C7.8691 20.4879 7.93422 20.5009 7.99999 20.5009C8.06576 20.5009 8.13088 20.4879 8.19162 20.4627C8.25237 20.4375 8.30755 20.4006 8.35399 20.354L14.354 14.354C14.4006 14.3075 14.4375 14.2524 14.4627 14.1916C14.4879 14.1309 14.5009 14.0658 14.5009 14C14.5009 13.9342 14.4879 13.8691 14.4627 13.8084C14.4375 13.7476 14.4006 13.6924 14.354 13.646Z" fill="black"/>
<path fill-rule="evenodd" clip-rule="evenodd" d="M1.64601 11.354C1.69245 11.4006 1.74763 11.4375 1.80838 11.4627C1.86912 11.4879 1.93424 11.5009 2.00001 11.5009C2.06578 11.5009 2.1309 11.4879 2.19164 11.4627C2.25239 11.4375 2.30756 11.4006 2.35401 11.354L8.00001 5.70701L13.646 11.354C13.6925 11.4005 13.7477 11.4374 13.8084 11.4625C13.8692 11.4877 13.9343 11.5006 14 11.5006C14.0658 11.5006 14.1309 11.4877 14.1916 11.4625C14.2523 11.4374 14.3075 11.4005 14.354 11.354C14.4005 11.3075 14.4374 11.2523 14.4625 11.1916C14.4877 11.1309 14.5006 11.0658 14.5006 11C14.5006 10.9343 14.4877 10.8692 14.4625 10.8084C14.4374 10.7477 14.4005 10.6925 14.354 10.646L8.35401 4.64601C8.30756 4.59944 8.25239 4.5625 8.19164 4.53729C8.1309 4.51209 8.06578 4.49911 8.00001 4.49911C7.93424 4.49911 7.86912 4.51209 7.80838 4.53729C7.74763 4.5625 7.69245 4.59944 7.64601 4.64601L1.64601 10.646C1.59945 10.6925 1.5625 10.7476 1.5373 10.8084C1.51209 10.8691 1.49911 10.9342 1.49911 11C1.49911 11.0658 1.51209 11.1309 1.5373 11.1916C1.5625 11.2524 1.59945 11.3076 1.64601 11.354Z" fill="black"/>
</svg>
