<svg width="57" height="61" viewBox="0 0 57 61" fill="none" xmlns="http://www.w3.org/2000/svg">
<g clip-path="url(#clip0)">
<path d="M31.5566 56.5063C43.565 56.5063 53.2997 48.4474 53.2997 38.5063C53.2997 28.5652 43.565 20.5063 31.5566 20.5063C19.5482 20.5063 9.81345 28.5652 9.81345 38.5063C9.81345 48.4474 19.5482 56.5063 31.5566 56.5063Z" fill="white"/>
<path d="M31.5566 21.4557C37.0612 21.4557 42.2294 23.2279 46.1284 26.4557C50.0122 29.6709 52.1682 33.962 52.1682 38.519C52.1682 43.076 50.0275 47.3544 46.1284 50.5823C42.2446 53.7975 37.0612 55.5823 31.5566 55.5823C26.052 55.5823 20.8838 53.8101 16.9847 50.5823C13.1009 47.3671 10.945 43.076 10.945 38.519C10.945 33.962 13.0856 29.6836 16.9847 26.4557C20.8838 23.2279 26.0673 21.4557 31.5566 21.4557ZM31.5566 19.557C18.9266 19.557 8.66666 28.038 8.66666 38.5063C8.66666 48.9747 18.9113 57.4557 31.5566 57.4557C44.2018 57.4557 54.4465 48.9747 54.4465 38.5063C54.4465 28.038 44.2018 19.557 31.5566 19.557Z" fill="#64DD17"/>
<path d="M27.1223 44.4177L35.1804 37.7595V34.7342C35.1804 33.1266 33.7278 31.4937 31.4648 30.4937V29.6836H30.2722V30.7975C30.2722 30.9874 30.4098 31.1646 30.6086 31.2405C32.6575 32.0506 33.9878 33.4177 33.9878 34.7215V35.7848H22.9939V47.6836H22.4281C21.8471 47.6836 21.3884 47.2911 21.3884 46.8101V34.7215C21.3884 34.3544 21.9694 32.2911 24.7676 31.1772C24.9817 31.0886 25.104 30.9241 25.104 30.7342V29.6709H23.9113V30.4304C20.8379 31.7975 20.1957 34.1519 20.1957 34.7215V46.8101C20.1957 47.8354 21.2049 48.6709 22.4434 48.6709H28.3456C27.7339 47.962 27.2141 47.1266 26.7248 46.1266C26.4037 45.5443 26.5719 44.8734 27.1223 44.4177Z" fill="#64DD17"/>
<path d="M32.367 28.0253V24.9114C32.367 24.5317 32 24.2279 31.5413 24.2279H23.8196C23.3609 24.2279 22.9939 24.5317 22.9939 24.9114V28.0127C22.9939 28.3924 23.3609 28.6962 23.8196 28.6962H31.5566C32 28.6962 32.367 28.3924 32.367 28.0253Z" fill="#64DD17"/>
<path d="M50.5627 37.2658L44.4312 32.2025C44.1713 31.9874 43.7584 31.9874 43.4985 32.2025C43.2385 32.4177 43.2385 32.7595 43.4985 32.9747L44.5077 33.8101L41.052 36.6709L38.4679 34.5317C38.208 34.3165 37.7951 34.3165 37.5352 34.5317C37.2752 34.7468 37.2752 35.0886 37.5352 35.3038L38.8043 36.3544L36.4495 38.3038L33.8654 40.3924L35.3945 41.6582C35.6239 41.8481 35.6239 42.1646 35.3945 42.3544C35.2722 42.4557 35.1193 42.4937 34.9664 42.4937C34.8135 42.4937 34.6606 42.4431 34.5382 42.3544L33.0092 41.0886L30.8685 42.8608L32.3976 44.1266C32.6269 44.3165 32.6269 44.6329 32.3976 44.8228C32.2752 44.9241 32.1223 44.962 31.9694 44.962C31.8165 44.962 31.6636 44.9114 31.5413 44.8228L30.0275 43.557L28.0551 45.1899C27.8869 45.3291 27.8257 45.5443 27.9174 45.7342C28.4985 46.9114 29.1101 47.8101 29.8593 48.557L24.4465 53.0507C24.1865 53.2658 24.1865 53.6076 24.4465 53.8228C24.5688 53.9241 24.737 53.9874 24.9205 53.9874C25.0887 53.9874 25.2569 53.9367 25.3945 53.8228L30.8226 49.3291C31.7095 49.962 32.8104 50.4557 34.2324 50.9367C34.3089 50.962 34.3853 50.9747 34.4618 50.9747C34.6147 50.9747 34.7676 50.9241 34.8899 50.8228L45.5933 41.9367L46.8624 42.9874C47.0918 43.1772 47.5199 43.2152 47.7951 42.9874C48.0551 42.7722 48.0551 42.4304 47.7951 42.2152L45.211 40.076L48.6667 37.2152L49.6759 38.038C49.7982 38.1393 49.9664 38.2025 50.1499 38.2025C50.3181 38.2025 50.4862 38.1519 50.6239 38.038C50.8226 37.8228 50.8226 37.481 50.5627 37.2658ZM35.3028 40.6203L36.8624 39.3291L37.7034 40.0253C37.9327 40.2152 38.3303 40.2025 38.5444 40.0253C38.7584 39.8481 38.7584 39.4937 38.5444 39.3291L37.7034 38.6329L39.6453 37.038L43.9725 40.6203H35.3028ZM44.2477 39.2912L42 37.4304L45.4557 34.5696L47.7034 36.4304L44.2477 39.2912Z" fill="#64DD17"/>
</g>
<path d="M47.6231 13.9004C47.7832 14.0775 47.9102 14.2878 47.9968 14.5194C48.0835 14.751 48.1281 14.9993 48.1281 15.25C48.1281 15.5007 48.0835 15.749 47.9968 15.9806C47.9102 16.2122 47.7832 16.4226 47.6231 16.5996L23.5606 43.2871C23.401 43.4647 23.2113 43.6055 23.0025 43.7016C22.7937 43.7977 22.5698 43.8472 22.3437 43.8472C22.1177 43.8472 21.8938 43.7977 21.685 43.7016C21.4762 43.6055 21.2865 43.4647 21.1269 43.2871L9.09562 29.9434C8.77289 29.5854 8.59158 29.1 8.59158 28.5938C8.59158 28.0875 8.77289 27.6021 9.09562 27.2441C9.41836 26.8862 9.85608 26.6851 10.3125 26.6851C10.7689 26.6851 11.2066 26.8862 11.5294 27.2441L22.3437 39.2421L45.1894 13.9004C45.349 13.7229 45.5387 13.582 45.7475 13.4859C45.9563 13.3898 46.1802 13.3403 46.4062 13.3403C46.6323 13.3403 46.8562 13.3898 47.065 13.4859C47.2738 13.582 47.4635 13.7229 47.6231 13.9004Z" fill="#00C853"/>
<defs>
<clipPath id="clip0">
<rect width="50" height="40" fill="white" transform="translate(7 19)"/>
</clipPath>
</defs>
</svg>
